<?xml version="1.0" standalone="no"?><!DOCTYPE svg PUBLIC "-//W3C//DTD SVG 1.1//EN" "http://www.w3.org/Graphics/SVG/1.1/DTD/svg11.dtd"><svg t="1626313507779" class="icon" viewBox="0 0 1024 1024" version="1.1" xmlns="http://www.w3.org/2000/svg" p-id="1127" xmlns:xlink="http://www.w3.org/1999/xlink" width="128" height="128"><defs><style type="text/css"></style></defs><path d="M512 128a298.666667 298.666667 0 0 1 109.226667 576.725333L670.634667 810.666667H768l0.298667 42.581333-133.461334-0.042667-0.682666 0.384-0.213334-0.384H390.229333l-0.213333 0.426667-0.896-0.426667H256.298667L256 810.666667h97.536l49.408-105.856A298.752 298.752 0 0 1 512 128z m102.101333 682.666667l-42.496-91.306667a300.032 300.032 0 0 1-118.997333 0.085333L410.026667 810.666667h204.074666zM512 179.2a247.466667 247.466667 0 1 0 0 494.933333 247.466667 247.466667 0 0 0 0-494.933333zM512 298.666667a128 128 0 1 1 0 256 128 128 0 0 1 0-256z m0 51.2a76.8 76.8 0 1 0 0 153.6 76.8 76.8 0 0 0 0-153.6zM512 213.333333a25.6 25.6 0 1 1 0 51.2 25.6 25.6 0 0 1 0-51.2z" p-id="1128" fill="#ffffff"></path></svg>