<?xml version="1.0" standalone="no"?><!DOCTYPE svg PUBLIC "-//W3C//DTD SVG 1.1//EN" "http://www.w3.org/Graphics/SVG/1.1/DTD/svg11.dtd"><svg t="1626313491597" class="icon" viewBox="0 0 1024 1024" version="1.1" xmlns="http://www.w3.org/2000/svg" p-id="927" xmlns:xlink="http://www.w3.org/1999/xlink" width="128" height="128"><defs><style type="text/css"></style></defs><path d="M293.333333 223.232l36.224 36.266667a247.466667 247.466667 0 0 0 349.653334 349.653333l36.181333 36.224a298.794667 298.794667 0 0 1-94.165333 59.349333L670.634667 810.666667H768l0.298667 42.581333-133.461334-0.042667-0.682666 0.384-0.213334-0.384H390.229333l-0.213333 0.426667-0.896-0.426667H256.298667L256 810.666667h97.536l49.408-105.856A298.752 298.752 0 0 1 293.333333 223.232z m278.272 496.170667a300.032 300.032 0 0 1-118.997333 0L410.026667 810.666667h204.074666l-42.496-91.306667zM512 128a298.666667 298.666667 0 0 1 242.986667 472.405333l-36.821334-36.821333A247.466667 247.466667 0 0 0 375.04 220.501333l-36.821333-36.778666A297.301333 297.301333 0 0 1 512 128zM414.165333 344.149333l36.394667 36.394667a76.8 76.8 0 0 0 107.52 107.52l36.437333 36.437333a128 128 0 0 1-180.394666-180.394666zM512 298.666667a128 128 0 0 1 118.272 177.066666l-41.813333-41.813333a76.8 76.8 0 0 0-83.712-83.712l-41.813334-41.813333A127.616 127.616 0 0 1 512 298.666667z m0-85.333334a25.6 25.6 0 1 1 0 51.2 25.6 25.6 0 0 1 0-51.2z" p-id="928" fill="#ffffff"></path><path d="M165.461333 95.445333l784.384 784.426667-36.181333 36.181333L129.237333 131.626667z" p-id="929" fill="#ffffff"></path></svg>