<svg xmlns="http://www.w3.org/2000/svg" xmlns:xlink="http://www.w3.org/1999/xlink" width="24" height="24" viewBox="0 0 24 24">
    <defs>
        <path id="a" d="M0 0h23.873v23.893H0z"/>
    </defs>
    <g fill="none" fill-rule="evenodd">
        <mask id="b" fill="#fff">
            <use xlink:href="#a"/>
        </mask>
        <path fill="#FF6800" d="M20.01 5.043a1.168 1.168 0 1 1 .002-2.336 1.168 1.168 0 0 1-.001 2.336M3.347 17.52C.273 12.78 1.627 6.425 6.365 3.35c3.31-2.148 7.517-2.177 10.867-.15a2.838 2.838 0 0 0-.09.676 2.87 2.87 0 0 0 2.869 2.867c.238 0 .466-.037.687-.093 2.847 4.708 1.465 10.875-3.181 13.89a10.174 10.174 0 0 1-7.71 1.425 10.177 10.177 0 0 1-6.46-4.444M22.149 5.768a2.847 2.847 0 0 0 .729-1.892 2.87 2.87 0 0 0-2.867-2.868c-.725 0-1.381.28-1.886.725a11.925 11.925 0 0 0-12.685.19C-.085 5.51-1.664 12.922 1.92 18.447a11.86 11.86 0 0 0 7.532 5.18 11.856 11.856 0 0 0 8.99-1.662c5.419-3.514 7.029-10.708 3.707-16.196" mask="url(#b)"/>
    </g>
</svg>
