<svg xmlns="http://www.w3.org/2000/svg" xmlns:xlink="http://www.w3.org/1999/xlink" width="256" height="256" viewBox="0 0 256 256">
    <defs>
        <linearGradient id="a" x1="50%" x2="50%" y1="17.427%" y2="83.553%">
            <stop offset="0%" stop-color="#512DA8"/>
            <stop offset="55.395%" stop-color="#6C3CDE"/>
            <stop offset="100%" stop-color="#512DA8"/>
        </linearGradient>
        <linearGradient id="c" x1="42.789%" x2="58.389%" y1="16.577%" y2="88.322%">
            <stop offset="0%" stop-color="#A13434"/>
            <stop offset="26.536%" stop-color="#FF5252"/>
            <stop offset="71.674%" stop-color="#FF5252"/>
            <stop offset="100%" stop-color="#A13434"/>
        </linearGradient>
        <path id="b" d="M20.37 74.993a112.878 112.878 0 0 0-2.98 5.266c-.964 1.81-2.014 3.694-2.898 5.661a88.034 88.034 0 0 0-2.657 5.667 162.88 162.88 0 0 0-1.85 4.404 91.229 91.229 0 0 0-2.737 7.465c-1.29 3.776-2.34 7.552-3.225 11.249-.481 1.967-.886 3.93-1.286 5.818-.08.315-.164.55-.242.865v.075c-.241 1.495-.48 3.069-.727 4.564-.08.708-.16 1.336-.24 1.967a37.203 37.203 0 0 0-.482 4.088c-.161 1.652-.323 3.301-.323 4.957-1.772 30.588 8.616 59.053 31.324 77.614 42.438 34.912 112.415 22.173 158.474-27.759 1.371-1.338 2.658-2.83 3.865-4.25 3.46-4.008 6.6-8.099 9.583-12.343 1.286-1.809 2.576-3.776 3.782-5.665.244-.232.403-.546.563-.863 1.05-1.649 2.015-3.302 2.982-4.954a136.935 136.935 0 0 0 7.004-13.685c.163-.389.325-.785.485-1.1 1.69-3.851 3.137-7.624 4.507-11.482 0-.154.081-.389.161-.55.242-.706.484-1.492.724-2.437.808-3.302.889-7.863-5.794-11.951-3.058-1.809-10.95-6.685-20.294-12.349-6.683-4.087-14.092-8.567-20.857-12.66-10.387-6.289-19.407-11.796-22.144-13.367-9.821-5.662-12.964 4.011-13.126 4.64-4.107 12.82-11.353 25.948-21.74 37.98-16.67 19.424-37.606 31.614-56.852 34.915-14.412 2.516-27.859.079-37.767-8.098-21.58-17.694-18.918-56.07 4.996-88.626a149.335 149.335 0 0 0-10.23 14.944"/>
        <linearGradient id="e" x1="88.604%" x2="15.2%" y1="9.197%" y2="73.292%">
            <stop offset="0%" stop-color="#3CD500" stop-opacity=".993"/>
            <stop offset="93.128%" stop-color="#FCF720" stop-opacity=".999"/>
            <stop offset="100%" stop-color="#FFF720"/>
            <stop offset="100%" stop-color="#FFF720"/>
        </linearGradient>
        <path id="d" d="M0 146.598v.429c.055 32.857 12.938 63.727 38.567 84.687 47.109 38.613 120.467 30.04 170.152-17.614 1.046-1.021 6.202-6.368-1.286-12.66-1.692-1.414-8.943-7.785-16.912-14.546-8.86-7.631-18.523-15.811-21.018-17.696-.078-.081-.238-.157-.32-.235-8.618-6.293-15.301-.789-16.913.707-14.897 14.158-31.646 24.692-48.396 31.063-29.551 11.322-59.346 9.827-79.88-7.002-18.198-14.938-25.526-39.157-22.466-65.737l.24-1.655v-.312c.246-1.495.486-3.069.727-4.564C.845 129.88.015 138.302 0 146.598"/>
        <linearGradient id="g" x1="102.909%" x2="31.608%" y1="19.133%" y2="73.841%">
            <stop offset="0%" stop-color="#81FFEF"/>
            <stop offset="87.606%" stop-color="#1F12E6"/>
            <stop offset="100%" stop-color="#1904E5"/>
        </linearGradient>
        <path id="f" d="M92.763 11.372c-.162 0-.321.078-.482.159-1.613.708-3.144 1.336-4.672 2.121-1.933.867-3.867 1.891-5.797 2.909-1.45.707-2.818 1.495-4.269 2.281-.724.474-1.448.867-2.254 1.341a73.096 73.096 0 0 0-4.591 2.828c-2.818 1.81-5.636 3.697-8.374 5.743-1.45 1.023-2.82 2.12-4.188 3.222-2.895 2.278-5.713 4.719-8.534 7.314-1.127.942-2.255 2.045-3.3 3.069a19.13 19.13 0 0 0-2.176 2.278c34.95-34.206 83.746-43.014 113.056-19.029 12.159 9.906 19.166 24.142 21.096 40.181 1.129 8.573.807 17.617-1.046 26.816-.642 3.855-1.61 7.706-2.817 11.639-.884 2.834-1.127 9.515 6.279 14.473 2.175 1.493 7.251 4.87 13.45 8.96 7.487 5.033 16.75 11.092 24.64 16.357 8.214 5.347 14.979 9.752 17.155 11.087 7.164 4.248 11.35.082 12.316-2.827 4.775-14.199 7.175-28.677 7.205-42.799v-.538c-.071-32.837-12.968-63.726-38.608-84.762C196.914 7.866 172.22 0 146.603 0c-17.938 0-36.327 3.86-53.84 11.372"/>
    </defs>
    <g fill="none" fill-rule="evenodd">
        <path fill="url(#a)" d="M92.763 11.372c-.162 0-.321.078-.482.159-1.613.708-3.144 1.336-4.672 2.121-1.933.867-3.867 1.891-5.797 2.909-1.45.707-2.818 1.495-4.269 2.281-.724.474-1.448.867-2.254 1.341a73.096 73.096 0 0 0-4.591 2.828c-2.818 1.81-5.636 3.697-8.374 5.743-1.45 1.023-2.82 2.12-4.188 3.222-2.895 2.278-5.713 4.719-8.534 7.314-1.127.942-2.255 2.045-3.3 3.069a19.13 19.13 0 0 0-2.176 2.278c-.244.16-.402.396-.563.55-.888.788-1.692 1.652-2.5 2.519-.08.079-.16.154-.238.236-1.533 1.649-3.062 3.38-4.593 5.108-.965 1.178-2.01 2.362-2.976 3.541a136.895 136.895 0 0 1-2.657 3.458 149.335 149.335 0 0 0-10.23 14.944 112.878 112.878 0 0 0-2.978 5.266c-.965 1.81-2.015 3.694-2.9 5.661a88.034 88.034 0 0 0-2.656 5.667 162.88 162.88 0 0 0-1.85 4.404 91.229 91.229 0 0 0-2.737 7.465c-1.29 3.776-2.34 7.552-3.225 11.249-.481 1.967-.886 3.93-1.286 5.818a73.646 73.646 0 0 0-.969 5.816l-.24 1.655a37.203 37.203 0 0 0-.482 4.088c-.161 1.652-.323 3.301-.323 4.957-1.772 30.588 8.616 59.053 31.324 77.614 42.438 34.912 112.415 22.173 158.474-27.759 1.371-1.338 2.658-2.83 3.865-4.25 3.46-4.008 6.6-8.099 9.583-12.343 1.286-1.809 2.576-3.776 3.782-5.665.244-.232.403-.546.563-.863 1.05-1.649 2.015-3.302 2.982-4.954a136.935 136.935 0 0 0 7.004-13.685c.163-.389.325-.785.485-1.1 1.69-3.851 3.22-7.624 4.507-11.482 0-.154.081-.389.161-.55.242-.706.484-1.492.724-2.437 13.048-41.44 4.594-83.826-25.687-108.597-16.24-13.326-36.5-19.703-57.886-19.703-15.72 0-32.047 3.444-47.84 10.107m-4.026 84.695c27.055-31.457 65.545-44.039 89.54-30.278 1.129 8.573.807 17.617-1.046 26.816-10.387-6.289-19.407-11.796-22.144-13.367-9.821-5.662-12.964 4.011-13.126 4.64-4.107 12.82-11.353 25.948-21.74 37.98-16.67 19.424-37.606 31.614-56.852 34.915.08-19.106 8.779-41.439 25.368-60.706"/>
        <use fill="url(#c)" xlink:href="#b"/>
        <use fill="url(#e)" xlink:href="#d"/>
        <use fill="url(#g)" xlink:href="#f"/>
    </g>
</svg>
