<svg xmlns="http://www.w3.org/2000/svg" width="832" height="104" viewBox="0 0 832 104">
    <g fill="#000" fill-rule="evenodd">
        <path d="M783.217 81.917s8.66 10.754 22.08 10.754c6.786 0 12.7-3.013 12.7-9.32 0-13.049-39.831-11.616-39.831-34.99 0-13.908 12.267-20.361 27.131-20.361 8.806 0 23.96 3.01 23.96 14.054v6.88H816.7v-3.583c0-4.302-6.493-6.167-10.97-6.167-8.226 0-13.567 2.87-13.567 8.605 0 13.764 39.837 10.755 39.837 34.99C832 95.68 820.454 104 805.154 104 785.671 104 776 91.237 776 91.237l7.217-9.32zM708.053 15.468c0-2.21-1.148-3.242-3.162-3.242H699V0h13.795c6.47 0 9.202 1.916 9.202 8.544v48.317h6.464c2.589 0 5.748-.737 7.619-3.239l16.817-25.186h15.952l-19.69 28.72c-3.305 4.565-5.462 5.594-5.462 5.594v.297s2.445.885 4.886 5.597l10.781 20.183c1.15 2.356 2.586 2.945 6.18 2.945H770V104h-10.062c-6.755 0-8.91-1.179-12.072-6.925l-13.224-25.041c-1.58-2.801-4.887-3.095-7.184-3.095h-5.461V104h-13.944V15.468zM653.998 43.555c0-2.222-1.143-3.26-3.14-3.26H645V28h13.142c6.285 0 9.284 2.666 9.284 8.74v4.742c0 2.964-.286 6.218-.286 6.218h.286c3.43-10.964 11.716-19.556 22.858-19.556 1.858 0 3.716.295 3.716.295v14.224s-1.858-.445-4.145-.445c-8.855 0-17 6.518-20.283 17.63-1.288 4.296-1.717 8.89-1.717 13.483V104h-13.857V43.555zM597.928 93C611.76 93 623 82.083 623 66.855 623 51.775 611.76 41 597.928 41 584.238 41 573 51.775 573 66.855 573 82.083 584.239 93 597.928 93m0-65C619.538 28 637 43.916 637 65.856 637 87.938 619.538 104 597.928 104 576.317 104 559 87.938 559 65.856 559 43.916 576.317 28 597.928 28M443.413 43.47c-.714-2.403-2.137-3.005-4.418-3.005H437V28h8.691c6.413 0 8.838 1.651 10.69 8.11l12.825 45.208c1.14 3.907 1.71 8.113 1.71 8.113h.286s.853-4.206 1.995-8.113L488.731 28.3h12.682l15.676 53.018c1.138 3.907 1.85 8.113 1.85 8.113h.286s.57-4.206 1.71-8.113l12.683-45.207c1.853-6.46 4.42-8.111 10.83-8.111H553v12.465h-1.997c-2.28 0-3.702.602-4.418 3.004L527.635 104h-15.536l-14.961-48.815c-1.141-3.907-1.997-8.262-1.997-8.262h-.285s-.854 4.355-1.995 8.262L478.041 104h-15.676l-18.952-60.53zM400.46 40.1H391V28.563h9.746V8h13.618v20.564h17.344V40.1h-17.344v34.318c0 14.942 10.036 16.863 15.339 16.863 2.005 0 3.297-.295 3.297-.295v12.721s-1.864.294-4.875.294c-9.173 0-27.664-2.958-27.664-27.956V40.1zM366 58c-.426-12.372-7.941-19-16.873-19-10.493 0-19.002 6.628-21.127 19h38zm-16.409-30C370.05 28 381 43.2 381 61.984c0 1.865-.434 5.737-.434 5.737h-53.16c.866 15.487 12.102 24.233 25.067 24.233 12.536 0 21.323-8.462 21.323-8.462l6.05 9.897S369.042 104 351.754 104C328.704 104 313 87.509 313 66c0-23.085 15.847-38 36.591-38zM205 91.331h6.116c1.992 0 3.13-1.179 3.13-3.241V0h12.944l44.662 65.846c3.697 5.597 8.39 14.142 8.39 14.142h.286s-.996-8.249-.996-14.142V9.43c0-6.631 2.702-9.43 9.246-9.43H303v12.67h-6.114c-1.994 0-3.13 1.03-3.13 3.242V104h-12.802L236.15 38.154c-3.698-5.6-8.25-14.142-8.25-14.142h-.284s.854 8.396.854 14.142v56.419c0 6.626-2.703 9.427-9.106 9.427H205V91.331zM128.757 91.331h13.162c22.464 0 37.202-13.845 37.202-39.48 0-25.48-14.88-39.18-37.202-39.18h-16.31V88.09c0 2.062 1.145 3.241 3.148 3.241zM111.3 12.671H102V0h40.92C173.685 0 194 19.003 194 51.851 194 84.848 173.684 104 142.92 104h-22.463c-6.438 0-9.156-2.8-9.156-9.427V12.67zM87.594 22.014v9.927h-13.02v-5.757c0-8.488-14.15-12.803-24.197-12.803-20.094 0-35.66 14.362-35.66 37.24 0 22.156 15.707 39.852 36.086 39.852 19.81 0 31.556-13.811 31.556-13.811L90 87.019S75.848 104 50.66 104C20.802 104 0 80.545 0 50.622 0 21.269 21.51 0 50.094 0c13.444 0 37.5 5.754 37.5 22.014z"/>
    </g>
</svg>
