<svg xmlns="http://www.w3.org/2000/svg" xmlns:xlink="http://www.w3.org/1999/xlink" width="130" height="16" viewBox="0 0 130 16">
    <defs>
        <path id="a" d="M122.378 12.603s1.353 1.654 3.45 1.654c1.06 0 1.984-.463 1.984-1.434 0-2.007-6.224-1.787-6.224-5.383 0-2.14 1.917-3.132 4.24-3.132 1.376 0 3.744.463 3.744 2.162v1.058h-1.963v-.55c0-.663-1.014-.95-1.714-.95-1.285 0-2.12.442-2.12 1.324 0 2.118 6.225 1.655 6.225 5.383 0 1.985-1.804 3.265-4.195 3.265-3.044 0-4.555-1.964-4.555-1.964l1.128-1.433zM110.633 2.38c0-.34-.18-.499-.494-.499h-.92V0h2.155c1.011 0 1.438.295 1.438 1.315v7.433h1.01c.405 0 .898-.113 1.19-.498l2.628-3.875h2.493l-3.077 4.418c-.516.703-.853.86-.853.86V9.7s.382.137.763.862l1.685 3.105c.18.362.404.453.965.453h.697V16h-1.573c-1.055 0-1.392-.181-1.886-1.065l-2.066-3.853c-.247-.43-.764-.476-1.123-.476h-.853V16h-2.179V2.38zm-8.446 4.32c0-.341-.178-.5-.49-.5h-.916V4.307h2.054c.982 0 1.45.41 1.45 1.344v.73c0 .456-.044.956-.044.956h.044c.536-1.686 1.83-3.008 3.572-3.008.29 0 .58.045.58.045v2.189s-.29-.069-.647-.069c-1.384 0-2.656 1.003-3.17 2.712-.2.661-.268 1.368-.268 2.075V16h-2.165V6.7zm-8.76 7.608c2.16 0 3.917-1.68 3.917-4.023 0-2.32-1.756-3.977-3.918-3.977-2.139 0-3.895 1.657-3.895 3.977 0 2.343 1.756 4.023 3.895 4.023zm0-10c3.376 0 6.104 2.448 6.104 5.824 0 3.397-2.728 5.868-6.105 5.868-3.376 0-6.082-2.471-6.082-5.868 0-3.376 2.706-5.824 6.082-5.824zm-24.144 2.38c-.111-.37-.334-.463-.69-.463h-.312V4.308h1.358c1.002 0 1.381.254 1.67 1.247l2.004 6.955c.179.602.268 1.249.268 1.249h.044s.134-.647.312-1.249l2.427-8.156h1.982l2.45 8.156c.177.602.288 1.249.288 1.249h.045s.09-.647.267-1.249l1.982-6.955c.29-.993.69-1.247 1.692-1.247h1.336v1.917h-.312c-.356 0-.578.093-.69.463L82.443 16h-2.428l-2.337-7.51c-.179-.601-.312-1.271-.312-1.271h-.045s-.133.67-.311 1.27L74.694 16h-2.45l-2.96-9.312zm-6.711-.519h-1.478V4.395h1.523V1.23h2.127v3.164h2.71v1.774h-2.71v5.28c0 2.298 1.568 2.594 2.397 2.594.313 0 .515-.045.515-.045v1.957s-.291.045-.761.045c-1.434 0-4.323-.455-4.323-4.3V6.17zm-5.385 2.754C57.121 7.02 55.947 6 54.551 6c-1.64 0-2.969 1.02-3.301 2.923h5.938zm-2.563-4.615c3.196 0 4.907 2.338 4.907 5.228 0 .287-.068.883-.068.883h-8.306c.136 2.382 1.891 3.728 3.917 3.728 1.959 0 3.332-1.302 3.332-1.302l.945 1.522S57.663 16 54.961 16c-3.6 0-6.055-2.537-6.055-5.846 0-3.552 2.476-5.846 5.718-5.846zM32.03 14.05h.956c.311 0 .489-.181.489-.499V0h2.022l6.979 10.13c.578.861 1.31 2.176 1.31 2.176h.046s-.156-1.27-.156-2.176V1.45c0-1.02.422-1.45 1.445-1.45h2.222v1.95h-.956c-.311 0-.489.158-.489.498V16h-2l-7-10.13c-.578-.862-1.29-2.176-1.29-2.176h-.044s.133 1.292.133 2.176v8.68c0 1.02-.422 1.45-1.422 1.45H32.03v-1.95zm-11.913 0h2.057c3.51 0 5.813-2.13 5.813-6.074 0-3.92-2.325-6.028-5.813-6.028h-2.549v11.603c0 .318.18.499.492.499zM17.391 1.949h-1.453V0h6.393c4.807 0 7.982 2.924 7.982 7.977 0 5.077-3.175 8.023-7.982 8.023h-3.51c-1.006 0-1.43-.43-1.43-1.45V1.95zm-3.704 1.438v1.527h-2.035v-.886c0-1.306-2.21-1.97-3.78-1.97-3.14 0-5.573 2.21-5.573 5.73 0 3.408 2.455 6.13 5.639 6.13 3.095 0 4.93-2.124 4.93-2.124l1.194 1.594S11.852 16 7.917 16C3.25 16 0 12.391 0 7.788 0 3.272 3.361 0 7.827 0c2.1 0 5.86.885 5.86 3.387z"/>
    </defs>
    <g fill="none" fill-rule="evenodd">
        <mask id="b" fill="#fff">
            <use xlink:href="#a"/>
        </mask>
        <use fill="#000" xlink:href="#a"/>
        <g fill="#FFF" mask="url(#b)">
            <path d="M0 0h130v16H0z"/>
        </g>
    </g>
</svg>
