<?xml version="1.0" standalone="no"?><!DOCTYPE svg PUBLIC "-//W3C//DTD SVG 1.1//EN" "http://www.w3.org/Graphics/SVG/1.1/DTD/svg11.dtd"><svg t="1622620502174" class="icon" viewBox="0 0 1024 1024" version="1.1" xmlns="http://www.w3.org/2000/svg" p-id="15069" xmlns:xlink="http://www.w3.org/1999/xlink" width="200" height="200"><defs><style type="text/css"></style></defs><path d="M650.666667 896h-362.666667a32 32 0 0 1-4.352-63.701333l4.352-0.298667H341.333333v-63.829333H181.333333a96 96 0 0 1-95.786666-89.386667L85.333333 672.213333V352a96 96 0 0 1 89.429334-95.786667L181.333333 256h277.248a32 32 0 0 1 4.352 63.701333l-4.352 0.298667H181.333333a32 32 0 0 0-31.701333 27.648L149.333333 352v320.213333c0 16.213333 12.032 29.568 27.648 31.701334l4.352 0.298666H341.333333V704h255.786667v0.170667h160a32 32 0 0 0 31.701333-27.648l0.298667-4.309334v-21.504a32 32 0 0 1 63.701333-4.352l0.298667 4.352v21.504a96 96 0 0 1-89.429333 95.744l-6.570667 0.256h-160v63.744l53.546667 0.042667a32 32 0 0 1 31.701333 27.648l0.298667 4.352a32 32 0 0 1-27.648 31.701333L650.666667 896h-362.666667 362.666667z m-117.546667-127.829333H405.333333V832h127.786667v-63.829333z m53.461333-597.461334h322.304l4.266667 0.64 4.266667 1.194667 2.432 1.024c3.413333 1.493333 6.613333 3.669333 9.386666 6.485333l1.792 1.877334 2.56 3.456 1.578667 2.773333 1.664 3.84 0.853333 2.773333 0.554667 2.730667 0.426667 4.010667v321.365333a32 32 0 0 1-63.744 4.352l-0.256-4.352-0.042667-242.986667-329.344 329.386667a32 32 0 0 1-41.642667 3.114667l-3.584-3.072a32 32 0 0 1-3.114666-41.685334l3.114666-3.584L829.312 234.666667h-242.730667a32 32 0 0 1-31.701333-27.648l-0.298667-4.352a32 32 0 0 1 27.648-31.701334l4.352-0.298666z" p-id="15070" fill="#ffffff"></path></svg>