<?xml version="1.0" standalone="no"?><!DOCTYPE svg PUBLIC "-//W3C//DTD SVG 1.1//EN" "http://www.w3.org/Graphics/SVG/1.1/DTD/svg11.dtd"><svg t="1622620479558" class="icon" viewBox="0 0 1024 1024" version="1.1" xmlns="http://www.w3.org/2000/svg" p-id="14922" xmlns:xlink="http://www.w3.org/1999/xlink" width="200" height="200"><defs><style type="text/css"></style></defs><path d="M288 938.666667a32 32 0 0 1-4.352-63.701334l4.352-0.298666h74.624v-106.581334H181.333333a96 96 0 0 1-95.786666-89.429333L85.333333 672.085333V224a96 96 0 0 1 89.429334-95.786667L181.333333 128h661.290667a96 96 0 0 1 95.786667 89.429333l0.213333 6.570667v448.085333a96 96 0 0 1-89.429333 95.786667l-6.570667 0.213333h-181.333333V874.666667h74.709333a32 32 0 0 1 4.352 63.701333L736 938.666667H288z m309.248-170.581334h-170.666667l0.042667 106.581334h170.666667l-0.042667-106.581334zM842.581333 192H181.333333a32 32 0 0 0-31.701333 27.648L149.333333 224v448.085333c0 16.213333 12.032 29.568 27.648 31.701334l4.352 0.298666h661.290667a32 32 0 0 0 31.701333-27.648l0.298667-4.352V224a32 32 0 0 0-27.648-31.744l-4.352-0.256z" p-id="14923" fill="#ffffff"></path></svg>