<svg xmlns="http://www.w3.org/2000/svg" width="24" height="24" viewBox="0 0 24 24">
    <g fill="#FF6800" fill-rule="nonzero">
        <path d="M7.702 23a3.373 3.373 0 0 1-2.5-1.07 3.504 3.504 0 0 1-.454-.6L.465 13.84a2.151 2.151 0 0 1-.158-.31A3.52 3.52 0 0 1 .001 12c.001-.54.128-1.071.37-1.552a.861.861 0 0 1 .084-.17l4.293-7.555c.151-.237.328-.456.528-.653A3.406 3.406 0 0 1 7.702 1h8.587c.935.001 1.83.387 2.479 1.07.18.197.339.412.474.642l4.294 7.554.095.16c.24.486.366 1.02.369 1.563 0 .488-.105.97-.306 1.413-.053.117-.105.214-.158.32l-4.294 7.49c-.123.221-.272.426-.443.61a3.405 3.405 0 0 1-2.51 1.07L7.702 23zM8.63 3.258A2.799 2.799 0 0 0 6.215 4.67l-3.366 5.96a2.816 2.816 0 0 0 0 2.825l3.366 5.917a2.789 2.789 0 0 0 2.415 1.424h6.741c.996 0 1.915-.544 2.405-1.424l3.376-5.917a2.882 2.882 0 0 0 0-2.825l-3.376-5.917a2.768 2.768 0 0 0-2.405-1.412l-6.74-.043z"/>
        <path d="M11.966 19.15a2.102 2.102 0 0 1-1.13-.295l-4.251-2.477a2.195 2.195 0 0 1-1.13-1.9V9.522a2.195 2.195 0 0 1 1.13-1.9l4.285-2.478A2.124 2.124 0 0 1 12 4.85a2.26 2.26 0 0 1 1.13.294l4.285 2.477a2.195 2.195 0 0 1 1.13 1.9v4.955a2.195 2.195 0 0 1-1.13 1.9l-4.285 2.478a2.26 2.26 0 0 1-1.164.294zm0-12.444c-.242 0-.48.062-.69.18l-3.39 1.947a1.358 1.358 0 0 0-.69 1.187v3.926c-.003.491.261.946.69 1.187l3.39 1.957c.213.113.45.172.69.17.242.005.48-.058.69-.18l3.391-1.947c.416-.25.67-.702.667-1.187v-3.892a1.38 1.38 0 0 0-.644-1.188l-3.392-1.945A1.3 1.3 0 0 0 12 6.74l-.034-.034z"/>
        <path d="M11.444 15.688L9.3 14.38a1.248 1.248 0 0 1-.572-1.08V10.71c-.014-.444.206-.86.572-1.08l2.144-1.317a1.109 1.109 0 0 1 1.153 0l2.104 1.35c.363.222.582.636.571 1.08v2.592c.005.441-.213.853-.571 1.08l-2.155 1.306c-.16.089-.34.133-.52.13a1.105 1.105 0 0 1-.582-.162zm.255-6.307l-1.685 1.026a.676.676 0 0 0-.326.583v2.052a.71.71 0 0 0 .326.594l1.685 1.08a.645.645 0 0 0 .643 0l1.685-1.08a.711.711 0 0 0 .316-.594V10.99a.689.689 0 0 0-.316-.583l-1.685-1.08a.63.63 0 0 0-.316-.043.559.559 0 0 0-.327.097z"/>
    </g>
</svg>
