<svg xmlns="http://www.w3.org/2000/svg" width="24" height="24" viewBox="0 0 24 24">
    <g fill="none" fill-rule="evenodd">
        <path fill="#FF6800" d="M12 0c6.628 0 12 5.372 12 12s-5.372 12-12 12C5.373 24 0 18.628 0 12S5.373 0 12 0"/>
        <path fill="#FFF" d="M13.283 6.226a1.05 1.05 0 1 1-1.485-1.486 1.05 1.05 0 0 1 1.485 1.486m-6.11 6.11a1.05 1.05 0 1 1-1.485-1.486 1.05 1.05 0 0 1 1.485 1.486m4.341-7.878a1.453 1.453 0 0 0-.4 1.265L6.67 10.166a1.45 1.45 0 0 0-1.265.402 1.45 1.45 0 0 0 2.051 2.051c.344-.343.475-.818.401-1.264l4.445-4.444a1.45 1.45 0 1 0-.788-2.453M19.274 12.217a1.05 1.05 0 1 1-1.484-1.488 1.05 1.05 0 0 1 1.484 1.488m-6.11 6.109a1.05 1.05 0 1 1-1.484-1.484 1.05 1.05 0 0 1 1.485 1.484m4.34-7.878a1.45 1.45 0 0 0-.4 1.265l-4.444 4.444a1.447 1.447 0 0 0-1.265 2.453 1.453 1.453 0 0 0 2.05 0c.345-.344.476-.819.402-1.265l4.445-4.444c.446.074.92-.058 1.264-.401a1.452 1.452 0 0 0 0-2.052 1.453 1.453 0 0 0-2.051 0M18.831 7.65a1.745 1.745 0 0 1-2.467-2.466 1.749 1.749 0 0 1 2.467 0c.68.68.68 1.786 0 2.467M7.66 18.82a1.745 1.745 0 1 1-2.467-2.468 1.745 1.745 0 0 1 2.467 2.469m8.234-14.108a2.4 2.4 0 0 0-.666 2.1l-8.404 8.404a2.401 2.401 0 0 0-2.1.667c-.94.94-.94 2.468 0 3.408a2.412 2.412 0 0 0 3.407 0c.571-.572.79-1.36.667-2.101L17.2 8.788a2.406 2.406 0 0 0 2.101-.666 2.414 2.414 0 0 0 0-3.408 2.412 2.412 0 0 0-3.408 0"/>
    </g>
</svg>
