<svg xmlns="http://www.w3.org/2000/svg" width="24" height="24" viewBox="0 0 24 24">
    <g fill="none" fill-rule="evenodd" opacity=".846">
        <g fill="#000" fill-rule="nonzero">
            <g>
                <g>
                    <g>
                        <g>
                            <path d="M12 1.5C6.202 1.5 1.5 6.202 1.5 12S6.202 22.5 12 22.5 22.5 17.798 22.5 12 17.798 1.5 12 1.5zm0 16.594c-.518 0-.938-.42-.938-.938s.42-.937.938-.937.938.42.938.937c0 .518-.42.938-.938.938zm1.474-5.145c-.433.167-.724.588-.724 1.05v.532c0 .103-.084.188-.188.188h-1.124c-.104 0-.188-.085-.188-.188v-.504c0-.541.157-1.075.466-1.52.303-.437.725-.77 1.222-.96.796-.306 1.312-.974 1.312-1.703 0-1.034-1.01-1.875-2.25-1.875s-2.25.841-2.25 1.875v.178c0 .103-.084.187-.188.187H8.438c-.104 0-.188-.084-.188-.187v-.178c0-.921.403-1.781 1.134-2.421.704-.617 1.632-.954 2.616-.954.984 0 1.912.34 2.616.954.73.64 1.134 1.5 1.134 2.42 0 1.355-.893 2.574-2.276 3.106z" transform="translate(-1272 -12) translate(256) translate(776) translate(52) translate(188 12)"/>
                        </g>
                    </g>
                </g>
            </g>
        </g>
    </g>
</svg>
