<svg xmlns="http://www.w3.org/2000/svg" xmlns:xlink="http://www.w3.org/1999/xlink" width="24" height="24" viewBox="0 0 24 24">
    <defs>
        <path id="a" d="M8.742 9.883c-.668 0-1.212.546-1.212 1.219 0 .672.544 1.218 1.212 1.218.668 0 1.212-.546 1.212-1.218 0-.673-.544-1.22-1.212-1.22zM21.75 4H2.25a.75.75 0 0 0-.75.75v15c0 .415.335.75.75.75h19.5a.75.75 0 0 0 .75-.75v-15a.75.75 0 0 0-.75-.75zm-7.5 6.094c0-.103.023-.188.054-.188h2.892c.03 0 .054.085.054.188v1.125c0 .103-.023.187-.054.187h-2.892c-.03 0-.054-.084-.054-.187v-1.125zm-2.016 5.93h-1.029a.187.187 0 0 1-.185-.176 2.294 2.294 0 0 0-2.278-2.121c-1.2 0-2.189.937-2.278 2.12a.187.187 0 0 1-.185.176H5.25a.187.187 0 0 1-.188-.196 3.707 3.707 0 0 1 1.749-2.956 2.62 2.62 0 0 1-.682-1.77c0-1.45 1.17-2.624 2.61-2.624a2.618 2.618 0 0 1 2.612 2.625c0 .682-.258 1.3-.682 1.77a3.705 3.705 0 0 1 1.748 2.955.181.181 0 0 1-.183.196zm6.537-1.243h-4.355c-.091 0-.166-.084-.166-.187v-1.125c0-.103.075-.188.166-.188h4.353c.091 0 .166.085.166.188v1.125h.003c0 .103-.075.187-.167.187z"/>
    </defs>
    <g fill="none" fill-rule="evenodd">
        <mask id="b" fill="#fff">
            <use xlink:href="#a"/>
        </mask>
        <use fill="#000" fill-rule="nonzero" xlink:href="#a"/>
        <g fill="#111" mask="url(#b)">
            <path d="M0 0h24v24H0z"/>
        </g>
    </g>
</svg>
