<svg xmlns="http://www.w3.org/2000/svg" xmlns:xlink="http://www.w3.org/1999/xlink" width="500" height="500" viewBox="0 0 500 500">
    <defs>
        <path id="a" d="M39.857 146.368c-2.047 3.374-3.937 6.747-5.83 10.28-1.889 3.534-3.943 7.211-5.674 11.051a171.652 171.652 0 0 0-5.2 11.063c-1.26 2.913-2.519 5.825-3.62 8.597a177.795 177.795 0 0 0-5.358 14.573c-2.525 7.371-4.58 14.742-6.311 21.96-.942 3.84-1.736 7.671-2.517 11.357-.157.615-.321 1.074-.473 1.689v.146c-.473 2.919-.942 5.991-1.423 8.91-.157 1.382-.315 2.608-.471 3.84-.473 2.76-.788 5.366-.944 7.98-.315 3.225-.632 6.444-.632 9.677-3.467 59.712 16.864 115.28 61.308 151.513 83.06 68.153 220.019 43.284 310.166-54.19 2.684-2.612 5.201-5.524 7.564-8.296 6.772-7.824 12.92-15.81 18.755-24.095 2.518-3.532 5.043-7.372 7.404-11.06.477-.452.787-1.065 1.102-1.684 2.054-3.22 3.942-6.446 5.836-9.67 5.201-8.905 9.773-17.81 13.709-26.716.318-.76.635-1.532.948-2.147 3.307-7.518 6.14-14.883 8.822-22.415 0-.3.158-.76.315-1.073a60.543 60.543 0 0 0 1.417-4.758c1.581-6.446 1.74-15.35-11.34-23.33-5.986-3.531-21.433-13.05-39.72-24.107-13.08-7.978-27.58-16.724-40.822-24.714-20.328-12.277-37.983-23.027-43.34-26.094-19.222-11.053-25.373 7.83-25.69 9.058-8.038 25.026-22.22 50.654-42.548 74.142-32.628 37.918-73.604 61.715-111.272 68.159-28.207 4.912-54.526.154-73.918-15.808-42.236-34.541-37.027-109.457 9.778-173.01a291.492 291.492 0 0 0-20.021 29.172"/>
        <path id="b" d="M0 286.511v.837c.108 64.119 25.326 124.36 75.492 165.262 92.214 75.35 235.808 58.62 333.062-34.373 2.049-1.992 12.141-12.427-2.517-24.705-3.311-2.76-17.505-15.192-33.103-28.386-17.342-14.891-36.258-30.854-41.143-34.532-.152-.159-.465-.307-.625-.46-16.87-12.28-29.952-1.539-33.107 1.38-29.16 27.629-61.945 48.185-94.733 60.618-57.843 22.094-116.166 19.177-156.358-13.664C11.345 349.338-3 302.076 2.99 250.206l.47-3.23v-.608c.482-2.917.95-5.989 1.424-8.906C1.655 253.887.028 270.322 0 286.51"/>
        <path id="c" d="M181.397 22.214c-.316 0-.63.152-.944.31-3.158 1.383-6.156 2.61-9.148 4.143-3.786 1.694-7.574 3.694-11.352 5.683-2.841 1.38-5.518 2.92-8.36 4.455-1.417.926-2.835 1.694-4.415 2.62a143.204 143.204 0 0 0-8.99 5.524c-5.518 3.536-11.037 7.222-16.399 11.218-2.84 1.999-5.522 4.141-8.201 6.294-5.67 4.45-11.188 9.218-16.712 14.287-2.206 1.84-4.416 3.995-6.463 5.995-1.582 1.38-3 2.916-4.26 4.45C154.594 20.376 250.15 3.17 307.547 50.022c23.81 19.35 37.532 47.158 41.312 78.488 2.21 16.747 1.58 34.413-2.05 52.382-1.257 7.53-3.154 15.053-5.516 22.735-1.73 5.536-2.206 18.586 12.296 28.271 4.26 2.917 14.2 9.513 26.34 17.502 14.66 9.832 32.8 21.667 48.252 31.952 16.084 10.444 29.33 19.05 33.592 21.657 14.029 8.298 22.228.16 24.119-5.522 9.35-27.736 14.049-56.017 14.109-83.603v-1.05c-.14-64.143-25.395-124.481-75.604-165.572C385.352 15.365 336.993 0 286.83 0c-35.128 0-71.139 7.54-105.433 22.214"/>
    </defs>
    <g fill="#FFF" fill-rule="evenodd">
        <path d="M181.506 22.306c-.316 0-.629.153-.943.31-3.156 1.384-6.152 2.611-9.141 4.145-3.783 1.694-7.569 3.695-11.344 5.684-2.839 1.381-5.514 2.92-8.353 4.456-1.417.926-2.833 1.694-4.412 2.62a143.071 143.071 0 0 0-8.983 5.526c-5.514 3.536-11.029 7.223-16.387 11.22-2.837 2-5.518 4.143-8.195 6.296-5.665 4.45-11.179 9.22-16.7 14.29-2.203 1.84-4.411 3.996-6.457 5.996-1.581 1.382-2.998 2.917-4.256 4.451-.477.313-.788.774-1.102 1.075-1.738 1.54-3.31 3.228-4.891 4.922-.157.154-.315.3-.467.46-3 3.223-5.991 6.605-8.987 9.98-1.89 2.302-3.933 4.616-5.823 6.92-1.731 2.3-3.468 4.603-5.2 6.756a291.757 291.757 0 0 0-20.017 29.198c-2.046 3.376-3.935 6.752-5.829 10.288-1.887 3.537-3.941 7.218-5.672 11.061a171.885 171.885 0 0 0-5.198 11.072c-1.26 2.916-2.519 5.83-3.62 8.605a178.073 178.073 0 0 0-5.357 14.585c-2.525 7.378-4.578 14.756-6.31 21.979-.941 3.843-1.735 7.679-2.516 11.367a143.693 143.693 0 0 0-1.896 11.364l-.47 3.233c-.474 2.763-.788 5.372-.945 7.988-.314 3.227-.63 6.45-.63 9.685-3.467 59.763 16.859 115.38 61.294 151.644 83.04 68.212 219.97 43.322 310.098-54.236 2.683-2.614 5.2-5.53 7.562-8.304 6.771-7.83 12.917-15.824 18.751-24.116 2.517-3.534 5.042-7.378 7.402-11.068.477-.454.788-1.067 1.102-1.687 2.054-3.221 3.942-6.451 5.835-9.679 5.2-8.911 9.77-17.825 13.706-26.738.318-.76.635-1.534.948-2.15 3.306-7.523 6.301-14.895 8.82-22.433 0-.3.158-.76.315-1.075.473-1.379.945-2.915 1.416-4.761 25.532-80.967 8.989-163.782-50.264-212.18C356.611 15.018 316.967 2.56 275.121 2.56c-30.761 0-62.709 6.729-93.615 19.747m-7.876 165.48c52.94-61.462 128.257-86.045 175.21-59.158 2.209 16.75 1.58 34.42-2.047 52.393-20.324-12.287-37.975-23.047-43.331-26.116-19.218-11.063-25.367 7.836-25.684 9.065-8.037 25.048-22.215 50.698-42.54 74.207-32.62 37.95-73.587 61.768-111.247 68.218.156-37.33 17.178-80.965 49.639-118.61" opacity=".08"/>
        <use opacity=".08" xlink:href="#a"/>
        <use opacity=".08" xlink:href="#b"/>
        <use opacity=".08" xlink:href="#c"/>
    </g>
</svg>
