<svg xmlns="http://www.w3.org/2000/svg" xmlns:xlink="http://www.w3.org/1999/xlink" width="256" height="256" viewBox="0 0 256 256">
    <defs>
        <path id="a" d="M176.31 61.562c-25.514-11.757-63.643 1.392-90.731 31.922-16.463 18.534-26.3 40.623-27.173 60.891-.18.024-.363.053-.543.075-.415.054-.827.099-1.24.143-.482.052-.962.1-1.438.14a64.05 64.05 0 0 1-2.623.164 60.942 60.942 0 0 1-2.568.045 54.095 54.095 0 0 1-3.57-.14c-.468-.033-.93-.077-1.392-.124-.344-.035-.687-.07-1.027-.113-.46-.057-.914-.124-1.367-.194-.332-.05-.664-.102-.993-.16-.45-.08-.896-.17-1.339-.264-.321-.066-.643-.132-.96-.206-.443-.101-.877-.217-1.312-.333-.308-.082-.62-.162-.924-.251-.434-.126-.86-.265-1.284-.404-.296-.098-.595-.191-.886-.295-.428-.15-.844-.316-1.263-.48-.28-.111-.563-.216-.84-.332-.421-.177-.834-.37-1.247-.562-.262-.121-.528-.237-.786-.364-.42-.207-.828-.429-1.236-.65-.243-.131-.49-.254-.728-.391-.423-.239-.832-.497-1.243-.753-.215-.135-.436-.261-.648-.4-.446-.29-.877-.598-1.308-.908-.169-.121-.342-.234-.51-.358-.578-.43-1.144-.88-1.699-1.346l-.036-.027-.005-.004a35.813 35.813 0 0 1-3.612-3.49C3.094 123.827 7.037 88.983 30.023 58.677c.902-1.09 1.78-2.215 2.696-3.4.492-.582 1.005-1.165 1.517-1.75a111.24 111.24 0 0 0 1.514-1.747l.272-.297c1.46-1.599 2.971-3.253 4.441-4.786l.26-.248c.821-.856 1.598-1.665 2.497-2.441.093-.087.188-.187.285-.293l.062-.068.25-.204c35.796-33.975 84.28-41.61 112.779-17.759.69.575 1.363 1.167 2.021 1.773.216.199.422.407.635.61.435.413.868.826 1.288 1.252.247.25.482.509.723.763.372.392.744.785 1.104 1.188.247.276.485.56.728.843.336.393.673.79.999 1.194.24.296.473.598.706.9.312.404.62.81.921 1.222.228.312.45.627.67.943a50.5 50.5 0 0 1 1.482 2.237c.276.44.544.882.808 1.33.191.326.383.652.57.983.26.465.512.936.761 1.408.171.326.344.65.508.979.253.502.493 1.013.731 1.526.144.31.294.618.433.93.252.57.49 1.149.727 1.729.11.269.224.533.33.802.287.736.557 1.482.817 2.235.043.124.092.244.134.369.304.897.589 1.805.855 2.725.026.09.047.184.073.275.232.814.45 1.637.653 2.47.067.273.122.553.186.828.15.656.298 1.312.43 1.979.067.343.126.693.189 1.04.081.445.158.894.232 1.344zm-28.447 17.487c1.72-.66 3.882-.231 6.421 1.277 1.98 1.17 7.309 4.501 14.057 8.718l7.011 4.378c-.053.268-.104.534-.16.806-.076.352-.152.707-.232 1.063a86.286 86.286 0 0 1-.392 1.644c-.085.342-.167.683-.258 1.03a84.2 84.2 0 0 1-.519 1.897c-.082.293-.158.577-.244.872-.276.944-.568 1.904-.884 2.889-.19.577-.34 1.195-.444 1.845-.022.13-.032.268-.05.401-.025.198-.055.393-.073.595-.368 4.42 1.386 9.99 7.508 14.207.283.199.62.435 1.001.7 2.438 1.699 6.814 4.693 12.55 8.587 4.27 2.955 9.117 6.252 13.96 9.546a2599.553 2599.553 0 0 1 3.64 2.476l1.365.929 1.438.981c.336.23.672.457 1.005.686l1.516 1.037.476.326a138.212 138.212 0 0 1-7 13.186l-.101.17c-.946 1.566-1.924 3.186-2.956 4.761l-.106.182c-.063.122-.116.248-.156.31l-.183.168-.135.206c-1.521 2.313-2.749 4.099-3.869 5.63-3.233 4.475-6.43 8.483-9.784 12.267a87.895 87.895 0 0 1-2.49 2.762 1971.838 1971.838 0 0 0-4.517-3.974l-.02-.017-1.282-1.125-.315-.276-1.05-.918c-.186-.162-.37-.324-.554-.483l-.842-.734c-.236-.208-.472-.413-.705-.616l-.751-.653-.72-.625-.696-.603-.738-.64-.61-.527-.755-.65-.53-.456-.75-.643-.468-.402-.682-.58a217.551 217.551 0 0 0-1.058-.897l-.386-.325c-.187-.157-.357-.298-.527-.442l-.358-.298a142.81 142.81 0 0 0-.493-.404c-.078-.064-.168-.14-.242-.198a39.95 39.95 0 0 0-.593-.474 3.142 3.142 0 0 0-.303-.234l-.12-.088c-9.724-7.301-17.662-1.374-19.883.633-14.739 13.645-31.637 24.19-48.873 30.491-26.948 9.93-52.342 8.996-71.239-2.315a58.752 58.752 0 0 1-7.687-5.48 55.424 55.424 0 0 1-3.074-2.795C4.137 174.332-2.452 151.843.824 126.344l.262-1.65c.26-1.882.598-3.758 1.033-5.73l.148-.653c.38-1.693.773-3.443 1.227-5.188 1.03-4.066 2.134-7.73 3.385-11.241.232-.689.466-1.366.707-2.036-.053.289-.087.574-.134.863a75.57 75.57 0 0 0-.518 3.557 73.917 73.917 0 0 0-.227 2.144c-.04.44-.082.881-.114 1.32-.054.75-.09 1.495-.121 2.239-.016.383-.04.768-.049 1.149-.024 1.003-.024 1.999-.002 2.987.002.109-.002.222.001.33.03 1.086.092 2.161.176 3.225.029.36.073.713.108 1.07.069.707.143 1.412.237 2.11.056.412.124.819.188 1.228.1.634.208 1.264.329 1.887a51.593 51.593 0 0 0 .696 3.063c.103.396.203.794.316 1.186.179.63.378 1.251.582 1.87.112.341.216.688.336 1.025.3.847.626 1.68.972 2.499.05.12.096.243.148.362.379.874.787 1.73 1.219 2.573.156.303.327.597.49.897a41.5 41.5 0 0 0 .95 1.673c.2.332.413.655.623.981a39.247 39.247 0 0 0 1.701 2.442c.361.48.736.948 1.117 1.409.245.296.487.592.74.88.43.49.88.963 1.335 1.432.23.237.45.48.686.711a39.66 39.66 0 0 0 2.187 1.998c.567.48 1.151.939 1.745 1.387.181.136.365.266.548.398a38.664 38.664 0 0 0 3.42 2.226c.145.083.286.171.431.253.656.368 1.325.72 2.005 1.056.138.067.282.13.421.197a42.22 42.22 0 0 0 3.908 1.633c.2.072.399.147.6.217 1.468.508 2.978.943 4.526 1.306.208.048.418.092.628.139a50.29 50.29 0 0 0 2.474.481c.628.106 1.263.198 1.901.281.176.024.35.05.526.072.813.096 1.632.175 2.46.235.176.013.353.02.53.03a54.582 54.582 0 0 0 2.811.107c.264.003.525.016.79.016.285 0 .576-.015.862-.02.372-.005.744-.01 1.12-.023.54-.017 1.083-.047 1.628-.08.361-.02.719-.039 1.08-.066a63.294 63.294 0 0 0 1.827-.172c.305-.033.61-.058.916-.095a66.485 66.485 0 0 0 2.756-.383c.007-.002.014-.002.029-.004l1.71-.276v-.043c20.338-3.724 41.288-16.413 57.733-35.075 10.448-11.786 18.403-25.268 23.003-38.992l.032-.104c.01-.036 1.145-3.56 3.885-4.608zM36.323 230.397C17.367 214.477 5.204 192.63.826 168.022c.037.1.083.197.121.298.45 1.19.925 2.365 1.434 3.518.04.087.081.174.12.262a69.19 69.19 0 0 0 1.656 3.45l.076.151a65.785 65.785 0 0 0 1.84 3.295c.079.13.154.265.233.396a64.266 64.266 0 0 0 1.95 3.024c.109.16.218.322.33.481a63.125 63.125 0 0 0 4.753 6c.122.135.248.268.37.402a59.787 59.787 0 0 0 2.513 2.595c.09.087.183.171.274.258a60.68 60.68 0 0 0 2.83 2.552c.713.6 1.441 1.18 2.178 1.747.236.181.478.355.718.533.508.38 1.02.756 1.538 1.118.283.198.57.392.857.585a71.289 71.289 0 0 0 2.377 1.536c.532.325 1.07.641 1.612.951.267.154.531.311.8.46.762.422 1.53.83 2.308 1.22.05.026.1.054.153.08.825.412 1.661.804 2.506 1.182.283.126.571.245.857.367.575.248 1.151.49 1.734.722.334.133.67.26 1.007.388a68.765 68.765 0 0 0 4.484 1.524c.312.094.622.193.937.283.82.236 1.647.457 2.48.665.093.023.184.05.278.073.922.225 1.854.43 2.792.62.307.063.62.117.93.176.646.124 1.294.242 1.947.35.36.057.721.111 1.084.166a80.505 80.505 0 0 0 4.982.581c.322.028.641.06.964.082.943.07 1.892.125 2.847.163l.152.008c1.018.038 2.043.055 3.072.058.067 0 .134.004.202.004.129 0 .262-.01.39-.01a89.846 89.846 0 0 0 3.647-.09c.21-.01.42-.016.632-.026a95.924 95.924 0 0 0 3.981-.291l.814-.082c1.365-.14 2.736-.298 4.118-.497l.014-.001c1.385-.2 2.78-.438 4.18-.697l.858-.16c1.37-.266 2.746-.555 4.129-.879.215-.05.432-.104.646-.156 1.274-.305 2.554-.634 3.838-.987.23-.063.46-.123.69-.187 1.389-.392 2.784-.815 4.183-1.263.303-.097.608-.199.912-.298 1.436-.472 2.875-.964 4.319-1.495 17.757-6.49 35.15-17.33 50.279-31.33 2.307-2.082 6.856-4.805 12.673-1.562a15.915 15.915 0 0 1 2.023 1.323l.112.086c.313.242.743.59 1.272 1.029.434.36.951.793 1.51 1.265l1.06.9c.348.296.71.607 1.09.932l.752.645a1558.467 1558.467 0 0 1 15.325 13.394l1.448 1.28.01-.009c4.45 3.892 8.629 7.61 11.487 10.154 1.973 1.753 3.41 3.034 4.057 3.588 2.115 1.825 3.21 3.637 3.253 5.388.051 2.059-1.353 3.71-2.18 4.497-51.035 47.659-124.255 54.361-170.32 15.59zM179.55 92.78c1.728-8.024 2.329-15.995 1.811-23.741l.076.045L181 65.02c-1.874-17.494-9.373-32.163-21.683-42.418a60.14 60.14 0 0 0-2.623-2.062c-.14-.105-.28-.212-.42-.316a60.145 60.145 0 0 0-2.598-1.798c-.173-.113-.347-.224-.52-.336-.89-.57-1.79-1.12-2.707-1.642-.13-.074-.262-.144-.393-.217a63.5 63.5 0 0 0-2.76-1.458c-.083-.04-.162-.083-.244-.123-.96-.47-1.935-.91-2.92-1.33a64.148 64.148 0 0 0-3.467-1.367c-.198-.073-.398-.14-.599-.21a65.65 65.65 0 0 0-3.039-.99c-.117-.034-.235-.064-.352-.099a69.836 69.836 0 0 0-2.985-.792c-.153-.037-.304-.077-.457-.113a70.16 70.16 0 0 0-3.13-.656c-.223-.042-.445-.084-.67-.124a72.401 72.401 0 0 0-3.142-.49c-.21-.028-.42-.051-.631-.078a75.618 75.618 0 0 0-3.316-.347l-.197-.013a78.794 78.794 0 0 0-3.266-.181c-.2-.007-.4-.018-.601-.023a84.018 84.018 0 0 0-4.009-.014 89.406 89.406 0 0 0-3.325.13c-.195.011-.39.027-.585.04a86.255 86.255 0 0 0-3.317.28c-.097.008-.192.015-.289.027a91.692 91.692 0 0 0-3.471.446l-.685.1a93.085 93.085 0 0 0-4.1.726 96.416 96.416 0 0 0-3.457.747c-.152.036-.303.076-.455.114-.559.134-1.119.268-1.678.414l.339-.139c17.533-7.22 36.29-10.925 54.24-10.685 26.67.342 50.873 8.989 69.994 25.003 17.602 14.767 29.61 34.772 34.725 57.85 4.999 22.547 3.247 46.918-5.07 70.486-.351 1.01-1.355 2.396-3.027 2.975-1.788.623-4.032.16-6.464-1.318-2.17-1.366-9.148-6.02-17.23-11.41l-.05-.034-.861-.588a3561.323 3561.323 0 0 0-10.046-6.818 2183.344 2183.344 0 0 1-14.012-9.537c-6.56-4.433-11.505-7.805-13.566-9.255l-.021-.014c-7.558-5.18-5.661-11.77-5.417-12.513 1.055-3.27 1.89-6.307 2.524-9.184.213-.966.405-1.918.576-2.858l.005-.028z"/>
    </defs>
    <g fill="none" fill-rule="evenodd" transform="translate(1)">
        <mask id="b" fill="#fff">
            <use xlink:href="#a"/>
        </mask>
        <use fill="#231815" xlink:href="#a"/>
        <g fill="#FFF" mask="url(#b)">
            <path d="M0 0h255v256H0z"/>
        </g>
    </g>
</svg>
