<svg xmlns="http://www.w3.org/2000/svg" width="24" height="24" viewBox="0 0 24 24">
    <g fill="none" fill-rule="evenodd">
        <path fill="#FFF" fill-rule="nonzero" d="M16.463 20.195c-1.46.813-3.377 1.268-5.163 1.268C5 21.463 0 16.618 0 10.732S5 0 11.3 0c6.17 0 11.17 4.65 11.17 10.83 0 2.861-1.363 5.593-3.311 7.446l3.994 2.96L20.393 24l-3.93-3.805zM11.3 3.48c-3.961 0-7.176 3.154-7.176 7.154 0 3.838 3.15 7.382 6.981 7.382 4.027 0 7.274-3.187 7.274-7.187 0-4.195-3.28-7.35-7.079-7.35z"/>
        <path d="M0 0H24V24H0z"/>
    </g>
</svg>
