<svg xmlns="http://www.w3.org/2000/svg" width="112" height="22" viewBox="0 0 112 22">
    <g fill="#FFF">
        <path d="M14.71 18.353c-1.305.723-3.017 1.129-4.613 1.129C4.468 19.482 0 15.168 0 9.929 0 4.689 4.468.376 10.097.376c5.513 0 9.982 4.14 9.982 9.64 0 2.547-1.219 4.979-2.96 6.629l3.57 2.634-2.467 2.46-3.511-3.386zm-4.613-14.88c-3.54 0-6.412 2.809-6.412 6.37 0 3.415 2.814 6.57 6.238 6.57 3.598 0 6.5-2.837 6.5-6.397 0-3.734-2.93-6.542-6.326-6.542zM34.21.81h3.423v16.037c-1.422 1.477-3.859 2.692-7.602 2.692-4.846 0-7.544-2.373-7.544-7.178V.81h3.424v9.552c0 4.603.957 6.08 4.671 6.08 1.48 0 2.699-.377 3.598-.956V.81h.03zM53.795 19.076l-1.596-3.358h-8.298l-1.596 3.358h-3.83L48.05 0l9.575 19.076h-3.83zM48.02 7.063l-2.728 5.79h5.513l-2.785-5.79zM62.18 7.932L62.238 19.076 58.785 19.076 58.844.289 72.307 12.447 72.278.811 75.702.811 75.644 19.771zM83.013 19.076L83.013 3.908 77.617 3.908 77.617.839 91.863.839 91.863 3.937 86.437 3.937 86.437 19.105 83.013 19.105zM93.807 19.076L93.807.811 97.231.811 97.231 19.105 93.807 19.105zM100.771 19.047L100.771.811 104.195.811 104.195 15.95 111.855 15.95 111.855 19.076 100.771 19.076z"/>
    </g>
</svg>
